PathFileType	4	(X/Y/Z)	 s04c0403.trc
DataRate	CameraRate	NumFrames	NumMarkers	Units	OrigDataRate	OrigDataStartFrame	OrigNumFrames
200	200	7	50	mm	200	1501	2000
Frame#	Time	racr			lacr			c7			jug			rlel			rdr			llel			ldr			s2			lic			ric			lasi			rasi			rpsi			lpsi			rgt			lgt			rth1			rth2			rth3			rth4			rlfc			rmfc			rsh1			rsh2			rsh3			rsh4			rlmal			rmmal			rcal			rtoe			rmt5			lth1			lth2			lth4			lth3			llfc			lmfc			lsh1			lsh2			lsh3			lsh4			llmal			lmmal			lcal			ltoe			lmt5			SBIKE			LBIKE			RBIKE			
		X1	Y1	Z1	X2	Y2	Z2	X3	Y3	Z3	X4	Y4	Z4	X5	Y5	Z5	X6	Y6	Z6	X7	Y7	Z7	X8	Y8	Z8	X9	Y9	Z9	X10	Y10	Z10	X11	Y11	Z11	X12	Y12	Z12	X13	Y13	Z13	X14	Y14	Z14	X15	Y15	Z15	X16	Y16	Z16	X17	Y17	Z17	X18	Y18	Z18	X19	Y19	Z19	X20	Y20	Z20	X21	Y21	Z21	X22	Y22	Z22	X23	Y23	Z23	X24	Y24	Z24	X25	Y25	Z25	X26	Y26	Z26	X27	Y27	Z27	X28	Y28	Z28	X29	Y29	Z29	X30	Y30	Z30	X31	Y31	Z31	X32	Y32	Z32	X33	Y33	Z33	X34	Y34	Z34	X35	Y35	Z35	X36	Y36	Z36	X37	Y37	Z37	X38	Y38	Z38	X39	Y39	Z39	X40	Y40	Z40	X41	Y41	Z41	X42	Y42	Z42	X43	Y43	Z43	X44	Y44	Z44	X45	Y45	Z45	X46	Y46	Z46	X47	Y47	Z47	X48	Y48	Z48	X49	Y49	Z49	X50	Y50	Z50	
1501	7.5050	860.117123	1237.136715	-52.712273	852.129947	1233.934037	-385.690667	894.353077	1317.704964	-221.130160	812.411610	1187.668375	-229.202706	599.935517	1144.474932	127.233436	709.210363	942.873624	-26.550356	620.730568	1165.148496	-563.695889	703.950572	941.426539	-468.146042	299.019071	1291.420095	-317.775877	471.291091	1217.361329	-428.646796	406.235524	1301.138709	-125.381543	484.636539	1168.391306	-377.400922	447.075191	1240.913844	-153.506456	330.875379	1335.228523	-279.131791	347.624991	1318.393609	-349.650277	360.134136	1263.459518	-107.222991	392.289113	1138.738178	-453.419498	460.939831	1140.365290	-80.716258	533.987647	1090.573435	-83.498995	574.242497	1015.783331	-78.920721	558.084009	1112.454048	-103.285766	656.658719	896.861155	-96.281244	646.105673	876.842643	-213.180348	560.143774	821.999964	-81.214227	509.556609	745.982545	-94.609537	431.627117	712.663898	-105.943710	534.888891	722.619134	-110.462948	324.622441	598.053419	-119.043847	353.642428	590.675757	-199.745801	253.569359	608.334999	-160.444030	484.449399	418.406183	-143.802995	414.602394	437.152277	-90.359221	386.562253	1055.683279	-465.479161	407.469993	971.328860	-463.490111	441.296447	971.231334	-451.674992	382.905962	885.688022	-467.423494	356.667321	719.981580	-450.489740	368.994845	684.383762	-338.900030	297.679951	606.089014	-473.696743	269.100658	526.064666	-454.589183	204.061591	465.700293	-456.313220	293.822039	512.982307	-426.295231	121.601626	342.067099	-455.967276	NaN	NaN	NaN	50.831902	375.635968	-417.609139	249.580958	145.468869	-396.205534	179.346983	170.245734	-464.075777	-176.551693	934.553929	-278.664662	-3.176320	86.141941	-484.387453	-15.030125	80.649821	-83.965563	
1502	7.5100	859.904771	1233.793507	-53.090641	851.287104	1234.661727	-385.785411	894.573197	1316.880664	-221.071998	811.936019	1187.431207	-230.922489	599.569985	1143.873307	128.350488	709.099165	942.832869	-26.043038	620.344620	1165.170802	-563.466030	704.013964	941.689925	-467.751173	299.676321	1295.265199	-315.588425	470.644404	1221.053366	-427.805541	407.003914	1302.489249	-123.730296	484.581982	1171.197507	-377.319691	446.956708	1241.930649	-152.404450	331.898532	1338.913195	-276.641448	346.386498	1322.729431	-345.524452	360.534739	1265.094242	-105.910679	392.664992	1142.491151	-452.734802	460.166024	1140.331557	-80.306563	532.270132	1089.516577	-83.585137	571.237095	1013.926745	-79.788395	556.546005	1111.081884	-103.524684	652.228739	893.385811	-97.872574	640.835983	873.665706	-213.926189	557.268635	816.008323	-81.893431	508.454761	739.266441	-94.363354	430.852868	704.154781	-106.125262	533.930671	716.194895	-111.527962	325.574741	587.996279	-118.841055	354.197133	581.803693	-199.852738	253.609288	595.677244	-159.814147	491.929187	414.981029	-143.381609	421.477928	430.972604	-89.960583	389.078088	1058.379173	-464.442038	411.932038	974.504703	-462.126935	445.557745	975.255343	-449.555379	389.529269	888.441920	-466.822630	365.589637	722.863983	-450.494622	377.479676	686.972119	-339.275717	303.652135	610.663560	-473.915620	272.889748	531.494853	-454.626398	206.149769	472.925103	-456.307706	297.068521	517.679393	-425.920079	119.672120	351.398538	-455.734810	NaN	NaN	NaN	49.992771	386.517290	-417.005351	241.350710	149.893184	-396.411017	171.969187	177.274305	-464.150933	-176.424096	934.627170	-278.264813	-3.157775	86.262406	-484.325301	-15.023250	80.642221	-83.929383	
1503	7.5150	859.946203	1230.814103	-53.613852	850.453522	1235.683489	-386.219021	894.687826	1316.143429	-221.107585	811.513688	1187.182823	-232.436209	599.496260	1143.441795	129.155578	709.055233	942.800990	-25.621309	619.988774	1165.196052	-563.455879	704.098417	941.999011	-467.525532	300.231141	1299.099126	-313.387196	469.913033	1224.764885	-426.748616	407.781770	1303.340918	-121.958277	483.930693	1173.886512	-377.045141	446.881236	1242.568233	-151.200059	332.806591	1342.199383	-273.832967	346.910602	1326.318653	-342.642507	360.872008	1266.256258	-104.457108	392.905513	1146.416496	-452.538615	459.173204	1139.577433	-79.900459	530.408011	1087.795460	-83.549067	567.958943	1011.193696	-80.624676	554.944888	1108.714352	-103.663992	647.265449	889.023251	-99.339292	635.040669	869.932465	-214.222452	553.738762	808.817034	-82.186197	506.712059	731.216250	-95.264361	429.843448	694.571626	-106.754932	532.615128	708.830651	-113.581166	326.260523	577.340298	-118.910932	354.673369	571.869705	-200.221977	253.874454	582.313490	-159.645317	498.751345	410.704583	-142.582411	427.534333	424.113369	-89.260037	391.809546	1061.115801	-463.369017	416.846997	977.841635	-460.771888	450.130192	979.338198	-447.401119	396.772523	891.139420	-466.213954	375.323375	725.884358	-450.346633	386.556984	689.698759	-339.581559	310.269711	615.419096	-474.254860	277.248331	537.242776	-454.651014	208.799870	480.600216	-456.372070	300.767039	523.197462	-425.981625	118.269420	361.126349	-455.735491	NaN	NaN	NaN	49.425379	397.812059	-416.706318	233.510945	154.889762	-396.492250	165.125579	184.762850	-464.047158	-176.263436	934.727074	-277.867959	-3.132536	86.667553	-484.526991	-15.012900	80.659615	-83.886187	
1504	7.5200	860.139987	1228.331713	-54.439346	849.385394	1236.804146	-386.498975	894.778107	1315.613512	-221.372296	810.976803	1187.197560	-233.934779	599.564098	1143.280094	129.753101	709.695457	943.112869	-25.268420	619.612745	1165.290075	-563.718467	704.300742	942.322763	-467.513345	300.678364	1302.478080	-311.274853	469.309882	1228.376698	-425.744299	408.528670	1303.813120	-120.053565	483.671922	1176.950832	-377.412694	446.853147	1242.848378	-149.916250	333.637086	1345.136862	-271.089485	349.390366	1329.207518	-341.462930	361.109467	1266.718922	-102.937820	393.127358	1150.203092	-451.760349	457.872882	1138.042968	-79.409912	528.247600	1085.102354	-83.689617	564.671451	1007.719126	-81.289489	553.182736	1105.649812	-103.489405	641.866060	883.895282	-100.699064	628.512956	865.310959	-215.289943	550.199523	800.623801	-82.969181	504.411669	722.289999	-96.381325	428.534966	684.123076	-107.564034	531.024214	700.635362	-114.827604	326.932522	566.032412	-119.295742	355.402087	561.109126	-200.789534	254.484682	568.239737	-159.752493	505.056105	405.535242	-142.026909	433.397861	416.550873	-88.890648	394.725142	1063.772886	-462.122353	422.029507	981.204228	-459.333851	454.992019	983.610974	-445.299681	404.524265	894.076326	-465.547286	385.543015	729.089966	-450.344298	395.920175	692.652685	-339.639242	317.400979	620.353919	-474.436622	282.000125	543.295575	-454.609904	211.913529	488.683977	-456.441377	304.876227	528.700605	-425.778667	117.101448	371.420915	-455.955654	NaN	NaN	NaN	49.118959	409.540783	-416.624959	226.036291	160.685843	-396.137179	158.855139	192.930376	-463.795186	-176.128537	934.832692	-277.483586	-3.139562	86.804476	-484.474785	-14.986459	80.629716	-83.847551	
1505	7.5250	860.509676	1226.193767	-55.486319	847.720637	1237.722770	-386.089847	894.774442	1315.214445	-221.880484	810.184598	1187.436769	-235.392543	599.882474	1143.394376	130.092742	708.961215	942.920583	-24.806627	619.135688	1165.462358	-564.230053	704.548765	942.727178	-467.608134	301.316694	1305.890002	-309.165173	468.609520	1231.832924	-424.584255	409.279750	1303.817934	-118.101790	483.475716	1179.725274	-375.715883	446.876815	1242.792861	-148.575987	334.378312	1347.672339	-268.231344	351.316616	1332.034309	-339.665941	361.185140	1266.605028	-101.296234	393.666754	1154.015377	-451.070077	456.247510	1135.905670	-78.880529	525.761118	1081.228001	-83.555151	560.954873	1003.697308	-81.965356	551.216051	1102.029384	-103.072872	636.154009	878.175339	-101.981619	621.882890	860.319793	-216.197548	546.342620	791.626120	-83.764095	502.134250	712.802373	-97.834421	426.905301	673.005909	-108.410646	528.927110	691.875300	-117.093638	327.788874	554.102500	-119.694456	356.380764	549.766982	-201.469270	255.609435	554.111486	-159.988781	510.846029	399.124071	-141.743935	438.989785	408.338721	-88.751696	397.842452	1066.450783	-460.816296	427.510465	984.655417	-457.973048	460.081373	987.909727	-443.161739	412.597459	896.960162	-464.764986	396.231199	732.295882	-450.250880	405.384740	695.746087	-339.588248	324.893814	625.450472	-474.485212	287.074672	549.499091	-454.617412	215.271382	497.149866	-456.567434	309.319361	534.401749	-425.574508	116.707677	381.751923	-455.851544	NaN	NaN	NaN	49.354985	422.033848	-416.748229	218.706244	167.229520	-395.241792	153.163152	201.932959	-463.121834	-175.977213	934.955664	-277.013015	-3.133314	87.012939	-484.483127	-15.019780	80.692151	-83.819112	
1506	7.5300	861.019565	1224.466572	-56.684596	846.747693	1239.088700	-386.922027	894.769622	1315.039460	-222.563583	809.837070	1187.602432	-236.896803	600.471817	1143.771785	130.220637	709.101147	943.098920	-24.700296	618.646678	1165.727414	-564.916407	704.880603	943.165231	-467.870931	302.027596	1308.747242	-307.018522	467.922332	1235.497953	-424.522530	409.970945	1303.480047	-116.099821	483.304722	1182.144610	-375.028449	446.956614	1242.423464	-147.202236	334.913718	1349.989116	-265.155629	351.360978	1334.977334	-336.380002	361.212009	1265.839613	-99.578010	395.430425	1158.508796	-452.082532	454.394687	1132.818438	-77.999496	523.087407	1077.407323	-83.327700	556.899321	999.233017	-82.583926	548.965428	1097.929695	-102.386920	630.317109	872.002177	-103.313233	615.090417	854.759737	-217.124853	542.048230	782.851311	-85.019033	499.702333	702.750264	-99.338651	425.220689	661.439927	-109.361494	526.839903	682.895551	-119.117957	328.996644	541.572110	-120.076576	357.358704	538.106897	-202.002883	256.994383	540.111317	-160.664006	516.176142	391.785250	-141.640721	444.512682	399.759861	-88.330836	401.135385	1068.984688	-459.617113	433.165902	988.070552	-456.544393	465.297326	992.256444	-441.722443	420.760805	900.104273	-463.984186	406.846648	735.543266	-450.002832	414.746331	698.840358	-339.380131	332.382338	630.542920	-474.442482	292.446477	555.776530	-454.500124	218.948141	505.657026	-456.502148	313.846361	540.275904	-425.698700	117.237921	392.263547	-455.617392	NaN	NaN	NaN	50.433209	434.378607	-416.457457	211.949003	174.174813	-394.720320	147.856352	211.288562	-462.653008	-175.809009	935.052601	-276.887048	-3.114565	87.188405	-484.422167	-14.991930	80.716003	-83.789424	
1507	7.5350	861.694853	1223.122415	-58.023390	845.725787	1240.614279	-387.819110	894.786331	1314.992101	-223.439095	809.457360	1187.910193	-238.350747	601.176473	1144.348187	130.101580	709.245095	943.351508	-24.727571	618.010526	1166.092156	-565.814722	705.241889	943.551995	-468.188628	302.383622	1311.312304	-304.404180	467.272768	1238.784682	-423.576201	412.312946	1302.672358	-112.850823	483.163869	1184.477801	-374.237948	447.096916	1241.761965	-145.817961	335.135445	1352.030311	-262.204731	352.394359	1337.748999	-333.876799	361.461231	1264.725361	-97.618553	396.276002	1162.143864	-451.312084	452.389253	1129.511689	-77.344694	520.229146	1073.111997	-83.080556	552.752795	994.361253	-83.290916	546.531511	1093.507628	-101.532350	624.140623	865.672496	-104.557023	608.252996	848.808319	-218.087430	537.883050	773.735336	-86.245092	497.620860	692.591319	-100.189477	423.812083	649.507042	-110.387433	524.578062	673.772955	-121.057291	330.616044	528.657920	-120.417389	359.520948	526.059875	-202.874153	258.641754	526.538458	-161.067863	520.963783	383.459001	-141.729128	449.164402	390.393868	-88.200038	404.583446	1071.549410	-458.651745	438.843482	991.517885	-455.156422	470.762990	996.349799	-439.029403	429.110444	903.305788	-463.369542	417.094584	738.853423	-449.589019	423.956153	702.096835	-339.013096	340.039267	635.545749	-474.371005	297.958803	562.112216	-454.359468	222.881063	514.070280	-456.356933	318.808422	546.372639	-424.846210	118.009963	402.555657	-455.427872	NaN	NaN	NaN	51.955411	446.055688	-415.941592	206.234313	181.277610	-395.098935	143.138854	220.514610	-462.639352	-175.532211	935.249253	-276.510570	-3.115510	87.345484	-484.388562	-14.992733	80.726030	-83.754964	
